<svg width="32" height="32" viewBox="0 0 32 32" fill="none" xmlns="http://www.w3.org/2000/svg">
<g clip-path="url(#clip0_1_354)">
<path d="M16.375 7C11.1984 7 7 11.1984 7 16.375C7 21.5516 11.1984 25.75 16.375 25.75C21.5516 25.75 25.75 21.5516 25.75 16.375C25.75 11.1984 21.5539 7 16.375 7ZM11.625 16.6898L11.6648 16.6266L14.1047 12.8109C14.1129 12.7984 14.1242 12.7883 14.1377 12.7816C14.1511 12.775 14.166 12.7721 14.181 12.7732C14.1959 12.7743 14.2103 12.7794 14.2225 12.788C14.2348 12.7966 14.2446 12.8083 14.2508 12.8219C14.657 13.7352 15.0102 14.8711 14.8445 15.5781C14.7758 15.8687 14.5828 16.2625 14.3648 16.6266C14.3369 16.6798 14.3064 16.7317 14.2734 16.782C14.2655 16.7933 14.255 16.8023 14.2427 16.8085C14.2304 16.8146 14.2168 16.8176 14.2031 16.8172H11.6977C11.6827 16.8174 11.668 16.8136 11.655 16.8061C11.6421 16.7987 11.6314 16.7878 11.6241 16.7748C11.6168 16.7617 11.6132 16.7469 11.6136 16.732C11.614 16.717 11.6185 16.7025 11.6266 16.6898H11.625ZM22.4953 18.0023C22.4955 18.019 22.4908 18.0354 22.4818 18.0494C22.4727 18.0635 22.4598 18.0745 22.4445 18.0813C22.2547 18.1617 21.6086 18.4602 21.3398 18.8328C20.6539 19.7875 20.1305 21.1531 18.9586 21.1531H14.0727C13.6601 21.1525 13.2518 21.0706 12.8709 20.9121C12.49 20.7536 12.1442 20.5216 11.853 20.2293C11.5618 19.9371 11.3311 19.5903 11.174 19.2089C11.017 18.8274 10.9366 18.4188 10.9375 18.0063V17.95C10.9375 17.9047 10.975 17.8672 11.0219 17.8672H13.7445C13.7992 17.8672 13.8383 17.9164 13.8344 17.9703C13.8141 18.1469 13.8477 18.3289 13.932 18.4937C14.093 18.8219 14.4289 19.0266 14.7906 19.0266H16.1391V17.9742H14.8047C14.7891 17.9741 14.7738 17.9696 14.7605 17.9614C14.7471 17.9532 14.7363 17.9415 14.7292 17.9276C14.722 17.9137 14.7188 17.8981 14.7199 17.8825C14.7209 17.8669 14.7262 17.8519 14.7352 17.8391L14.7844 17.7688C14.9094 17.5883 15.0898 17.3109 15.2695 16.9937C15.3914 16.7797 15.5102 16.5516 15.6055 16.3219C15.6242 16.2812 15.6391 16.2383 15.6562 16.1969C15.682 16.1234 15.7086 16.0547 15.7273 15.9867C15.7457 15.9291 15.7627 15.871 15.7781 15.8125C15.8227 15.6172 15.8414 15.4109 15.8414 15.1977C15.8414 15.1133 15.8383 15.025 15.8305 14.9422C15.8266 14.8508 15.8148 14.7586 15.8039 14.6672C15.7952 14.5854 15.7827 14.5041 15.7664 14.4234C15.7454 14.3007 15.7198 14.1787 15.6898 14.0578L15.6789 14.0109C15.6555 13.9266 15.6352 13.8469 15.6086 13.7633C15.5342 13.5066 15.4487 13.2532 15.3523 13.0039C15.3188 12.9101 15.2818 12.8176 15.2414 12.7266C15.1852 12.5875 15.1273 12.4617 15.075 12.3438C15.049 12.2932 15.0245 12.2419 15.0016 12.1898C14.9762 12.1337 14.9493 12.0782 14.9211 12.0234C14.9023 11.982 14.8797 11.9422 14.8648 11.9047L14.7 11.6016C14.6773 11.5602 14.7148 11.5094 14.7602 11.5227L15.7914 11.8016H15.7992L15.9344 11.8406L16.0844 11.8828L16.1391 11.8977V11.2859C16.1391 10.9898 16.375 10.75 16.6695 10.75C16.7391 10.7498 16.8079 10.7637 16.872 10.7908C16.936 10.8179 16.9939 10.8577 17.0422 10.9078C17.1419 11.0084 17.1981 11.1443 17.1984 11.2859V12.1953L17.3086 12.2258C17.3164 12.2297 17.3258 12.2336 17.3328 12.2391C17.3594 12.2578 17.3984 12.2875 17.4477 12.325C17.4867 12.3547 17.5281 12.3922 17.5766 12.432C17.7308 12.5577 17.8804 12.6891 18.025 12.8258C18.1922 12.9812 18.3797 13.1633 18.5594 13.3656C18.6102 13.4234 18.6586 13.4797 18.7094 13.5422C18.7578 13.6039 18.8125 13.6641 18.8578 13.7234C18.9195 13.8047 18.9828 13.8891 19.0414 13.9766C19.0672 14.018 19.0992 14.0609 19.1234 14.1023C19.1984 14.2133 19.2625 14.3273 19.3242 14.4422C19.3508 14.4945 19.3766 14.5523 19.3992 14.6086C19.4688 14.7625 19.5234 14.918 19.557 15.0758C19.5681 15.1093 19.5757 15.1438 19.5797 15.1789V15.1867C19.5906 15.2312 19.5945 15.2805 19.5984 15.3305C19.6204 15.5614 19.5922 15.7943 19.5156 16.0133C19.4914 16.0789 19.4688 16.1461 19.4391 16.2117C19.3805 16.3445 19.3133 16.4797 19.2328 16.6039C19.2063 16.6508 19.1742 16.6992 19.1445 16.7461C19.1109 16.7953 19.075 16.8422 19.0453 16.8867C19.0024 16.9459 18.9573 17.0035 18.9102 17.0594C18.8687 17.1156 18.8273 17.1719 18.7805 17.2227C18.7172 17.2992 18.6555 17.3711 18.5891 17.4398C18.5516 17.4852 18.5109 17.532 18.4672 17.5727C18.4266 17.6195 18.3828 17.6609 18.3453 17.6984C18.2797 17.7641 18.2281 17.8133 18.1828 17.8562L18.0758 17.9516C18.0609 17.9665 18.0406 17.9749 18.0195 17.975H17.1984V19.0266H18.2313C18.4617 19.0266 18.6813 18.9453 18.8594 18.7937C18.9195 18.7414 19.1836 18.5125 19.4969 18.1672C19.5071 18.1554 19.5208 18.1472 19.5359 18.1438L22.3875 17.318C22.4 17.3143 22.4132 17.3137 22.426 17.316C22.4389 17.3183 22.451 17.3236 22.4614 17.3314C22.4719 17.3392 22.4803 17.3493 22.4862 17.3609C22.4921 17.3726 22.4952 17.3854 22.4953 17.3984V18.0023Z" fill="white"/>
</g>
<circle cx="16" cy="16" r="15.5" stroke="white"/>
<defs>
<clipPath id="clip0_1_354">
<rect width="18.75" height="18.75" fill="white" transform="translate(7 7)"/>
</clipPath>
</defs>
</svg>
