<svg width="33" height="32" viewBox="0 0 33 32" fill="none" xmlns="http://www.w3.org/2000/svg">
<g clip-path="url(#clip0_1_358)">
<path d="M23.1227 10.5094C21.9274 9.97032 20.6461 9.57188 19.3063 9.34532C19.2943 9.34303 19.282 9.34451 19.2709 9.34955C19.2599 9.35459 19.2506 9.36294 19.2445 9.37345C19.0805 9.66173 18.8977 10.0375 18.7695 10.3344C17.3485 10.1221 15.9038 10.1221 14.4828 10.3344C14.3401 10.0054 14.1792 9.68456 14.0008 9.37345C13.9947 9.36281 13.9856 9.35427 13.9746 9.34896C13.9635 9.34366 13.9512 9.34184 13.9391 9.34376C12.6 9.57032 11.3188 9.96876 10.1227 10.5086C10.1124 10.5129 10.1037 10.5203 10.0977 10.5297C7.66642 14.1039 7.00001 17.5899 7.32735 21.032C7.32826 21.0405 7.33088 21.0486 7.33504 21.056C7.33921 21.0634 7.34483 21.0699 7.35157 21.075C8.77063 22.1082 10.3534 22.8952 12.0336 23.4031C12.0453 23.4067 12.0578 23.4067 12.0696 23.4031C12.0813 23.3995 12.0916 23.3924 12.0992 23.3828C12.4608 22.8993 12.7812 22.3863 13.057 21.8492C13.0609 21.8419 13.0631 21.8338 13.0635 21.8255C13.0639 21.8173 13.0626 21.809 13.0596 21.8013C13.0565 21.7936 13.0519 21.7866 13.0459 21.7809C13.0399 21.7751 13.0328 21.7707 13.025 21.768C12.5203 21.5779 12.0313 21.3486 11.5625 21.082C11.5541 21.0772 11.547 21.0704 11.5419 21.0622C11.5367 21.054 11.5337 21.0446 11.5331 21.0349C11.5325 21.0252 11.5343 21.0155 11.5383 21.0067C11.5423 20.9979 11.5485 20.9902 11.5563 20.9844C11.6547 20.9117 11.7531 20.8359 11.8469 20.7602C11.8553 20.7534 11.8655 20.749 11.8762 20.7476C11.887 20.7463 11.8979 20.7479 11.9078 20.7524C14.9758 22.1305 18.2984 22.1305 21.3305 20.7524C21.3404 20.7476 21.3514 20.7458 21.3623 20.747C21.3733 20.7483 21.3836 20.7525 21.3922 20.7594C21.4859 20.8359 21.5836 20.9117 21.6828 20.9844C21.6906 20.9901 21.6969 20.9977 21.7011 21.0064C21.7053 21.0152 21.7072 21.0248 21.7067 21.0345C21.7063 21.0441 21.7034 21.0536 21.6984 21.0619C21.6934 21.0702 21.6865 21.0771 21.6781 21.082C21.2109 21.3508 20.725 21.5781 20.2149 21.7672C20.207 21.77 20.1999 21.7745 20.1939 21.7803C20.188 21.7862 20.1833 21.7932 20.1803 21.801C20.1772 21.8087 20.1759 21.817 20.1763 21.8254C20.1768 21.8337 20.179 21.8418 20.1828 21.8492C20.4641 22.3859 20.7859 22.8969 21.1399 23.382C21.1472 23.392 21.1575 23.3994 21.1692 23.4034C21.181 23.4073 21.1936 23.4075 21.2055 23.4039C22.8886 22.8974 24.4739 22.11 25.8945 21.075C25.9015 21.0702 25.9073 21.0639 25.9116 21.0566C25.9159 21.0493 25.9186 21.0412 25.9195 21.0328C26.3102 17.0531 25.2649 13.5953 23.1469 10.5313C23.1417 10.5213 23.1331 10.5135 23.1227 10.5094ZM13.5156 18.9359C12.5922 18.9359 11.8305 18.1008 11.8305 17.0766C11.8305 16.0516 12.5774 15.2172 13.5156 15.2172C14.4609 15.2172 15.2156 16.0586 15.2008 17.0766C15.2008 18.1016 14.4539 18.9359 13.5156 18.9359ZM19.7461 18.9359C18.8219 18.9359 18.0609 18.1008 18.0609 17.0766C18.0609 16.0516 18.807 15.2172 19.7461 15.2172C20.6914 15.2172 21.4461 16.0586 21.4313 17.0766C21.4313 18.1016 20.6922 18.9359 19.7461 18.9359Z" fill="white"/>
</g>
<circle cx="16.25" cy="16" r="15.5" stroke="white"/>
<defs>
<clipPath id="clip0_1_358">
<rect width="18.75" height="18.75" fill="white" transform="translate(7.25 7)"/>
</clipPath>
</defs>
</svg>
