<svg width="25" height="25" viewBox="0 0 25 25" fill="none" xmlns="http://www.w3.org/2000/svg">
<circle cx="12.5" cy="12.5" r="12.5" transform="matrix(-4.37114e-08 -1 -1 4.37114e-08 25 25)" fill="white"/>
<path d="M14.9077 19.0972C15.0251 18.9879 15.1181 18.858 15.1816 18.7151C15.2451 18.5721 15.2778 18.4189 15.2778 18.2641C15.2778 18.1093 15.2451 17.9561 15.1816 17.8132C15.1181 17.6702 15.0251 17.5403 14.9077 17.431L9.9975 12.8461L14.9077 8.26115C15.1444 8.0402 15.2773 7.74053 15.2773 7.42806C15.2773 7.11559 15.1444 6.81592 14.9077 6.59497C14.6711 6.37402 14.3502 6.24989 14.0155 6.24989C13.6809 6.24989 13.36 6.37402 13.1233 6.59497L7.31459 12.0189C7.19727 12.1282 7.1042 12.2581 7.04069 12.401C6.97718 12.544 6.9445 12.6972 6.9445 12.852C6.9445 13.0068 6.97718 13.16 7.04069 13.303C7.1042 13.4459 7.19727 13.5758 7.31459 13.6851L13.1233 19.109C13.6042 19.5581 14.4142 19.5581 14.9077 19.0972Z" fill="black"/>
</svg>
