<svg width="33" height="32" viewBox="0 0 33 32" fill="none" xmlns="http://www.w3.org/2000/svg">
<circle cx="16.75" cy="16" r="15.5" stroke="white"/>
<path d="M16.375 4.89062C10.033 4.89062 4.89062 10.033 4.89062 16.375C4.89062 22.717 10.033 27.8594 16.375 27.8594C22.717 27.8594 27.8594 22.717 27.8594 16.375C27.8594 10.033 22.717 4.89062 16.375 4.89062ZM22.9375 11.3942L21.8916 12.3965C21.7993 12.4657 21.7557 12.5785 21.7737 12.6887V20.0638C21.7557 20.1766 21.7993 20.2894 21.8916 20.3561L22.917 21.3584V21.5814H17.7695V21.3687L18.8282 20.3407C18.9333 20.2356 18.9333 20.2048 18.9333 20.0485V14.0807L15.9854 21.5558H15.588L12.1581 14.0807V19.0923C12.1273 19.3025 12.2017 19.5153 12.3503 19.6665L13.7295 21.3353V21.5583H9.8125V21.3353L11.1916 19.6665C11.2643 19.5914 11.3184 19.5004 11.3496 19.4007C11.3807 19.301 11.3881 19.1954 11.3711 19.0923V13.2988C11.389 13.1373 11.3275 12.981 11.2045 12.8707L9.97913 11.3942V11.1711H13.7859L16.7236 17.6183L19.3102 11.1763H22.9375V11.3942Z" fill="white"/>
</svg>
