<svg width="60" height="60" viewBox="0 0 60 60" fill="none" xmlns="http://www.w3.org/2000/svg">
<path d="M29.9999 5.00009C43.7849 5.00009 54.9999 16.2151 54.9999 30.0001C54.9999 43.7851 43.7849 55.0001 29.9999 55.0001C16.2149 55.0001 4.99991 43.7851 4.99991 30.0001C4.99991 16.2151 16.2149 5.00009 29.9999 5.00009ZM29.9999 50.0001C41.0274 50.0001 49.9999 41.0276 49.9999 30.0001C49.9999 18.9726 41.0274 10.0001 29.9999 10.0001C18.9724 10.0001 9.99991 18.9726 9.99991 30.0001C9.99991 41.0276 18.9724 50.0001 29.9999 50.0001Z" fill="white"/>
<path d="M36.7676 19.2674L26.0351 29.9999L36.7676 40.7324L33.2326 44.2674L18.9651 29.9999L33.2326 15.7324L36.7676 19.2674Z" fill="white"/>
</svg>
