<svg width="33" height="32" viewBox="0 0 33 32" fill="none" xmlns="http://www.w3.org/2000/svg">
<path d="M25.9452 10.2614C25.2686 10.562 24.5417 10.7652 23.7776 10.857C24.566 10.3839 25.1559 9.63941 25.4371 8.76234C24.6964 9.20352 23.8856 9.51406 23.0402 9.68047C22.4716 9.0718 21.7186 8.66836 20.8979 8.53279C20.0773 8.39722 19.235 8.53711 18.5017 8.93074C17.7685 9.32436 17.1854 9.9497 16.8429 10.7097C16.5005 11.4696 16.4178 12.3217 16.6078 13.1336C15.1068 13.058 13.6385 12.6669 12.298 11.9855C10.9576 11.3041 9.77498 10.3477 8.82703 9.17834C8.5029 9.73897 8.31652 10.389 8.31652 11.0812C8.31616 11.7044 8.46921 12.318 8.7621 12.8677C9.05499 13.4173 9.47866 13.886 9.99552 14.2321C9.3961 14.213 8.80991 14.0506 8.28573 13.7584V13.8072C8.28567 14.6812 8.5872 15.5283 9.13915 16.2048C9.69111 16.8813 10.4595 17.3455 11.3139 17.5187C10.7579 17.6695 10.1749 17.6918 9.60899 17.5837C9.85007 18.3357 10.3196 18.9934 10.952 19.4645C11.5844 19.9357 12.3478 20.1968 13.1355 20.2113C11.7984 21.2638 10.147 21.8347 8.44698 21.8322C8.14585 21.8323 7.84497 21.8147 7.5459 21.7794C9.27147 22.8919 11.2802 23.4823 13.3316 23.48C20.2762 23.48 24.0725 17.7128 24.0725 12.7111C24.0725 12.5486 24.0685 12.3845 24.0612 12.222C24.7996 11.6865 25.4371 11.0234 25.9436 10.2638L25.9452 10.2614Z" fill="white"/>
<circle cx="16.5" cy="16" r="15.5" stroke="white"/>
</svg>
